<mxfile host="Electron" modified="2024-01-23T08:13:31.689Z" agent="Mozilla/5.0 (Windows NT 10.0; Win64; x64) AppleWebKit/537.36 (KHTML, like Gecko) draw.io/22.1.21 Chrome/120.0.6099.109 Electron/28.1.0 Safari/537.36" etag="OEcYdEf5PbtDiDHgrkg4" version="22.1.21" type="device">
  <diagram id="C5RBs43oDa-KdzZeNtuy" name="Page-1">
    <mxGraphModel dx="1418" dy="870" grid="1" gridSize="10" guides="1" tooltips="1" connect="1" arrows="1" fold="1" page="1" pageScale="1" pageWidth="827" pageHeight="1169" math="0" shadow="0">
      <root>
        <mxCell id="WIyWlLk6GJQsqaUBKTNV-0" />
        <mxCell id="WIyWlLk6GJQsqaUBKTNV-1" parent="WIyWlLk6GJQsqaUBKTNV-0" />
        <mxCell id="66qZwUKZa5FkFSXOPpvQ-0" value="Empleado" style="swimlane;fontStyle=1;align=center;verticalAlign=top;childLayout=stackLayout;horizontal=1;startSize=26;horizontalStack=0;resizeParent=1;resizeParentMax=0;resizeLast=0;collapsible=1;marginBottom=0;whiteSpace=wrap;html=1;fontSize=16;" parent="WIyWlLk6GJQsqaUBKTNV-1" vertex="1">
          <mxGeometry width="170" height="150" as="geometry" />
        </mxCell>
        <mxCell id="66qZwUKZa5FkFSXOPpvQ-1" value="+ nombre: String&lt;br&gt;+ salario: double" style="text;strokeColor=none;fillColor=none;align=left;verticalAlign=top;spacingLeft=4;spacingRight=4;overflow=hidden;rotatable=0;points=[[0,0.5],[1,0.5]];portConstraint=eastwest;whiteSpace=wrap;html=1;fontSize=16;" parent="66qZwUKZa5FkFSXOPpvQ-0" vertex="1">
          <mxGeometry y="26" width="170" height="44" as="geometry" />
        </mxCell>
        <mxCell id="66qZwUKZa5FkFSXOPpvQ-2" value="" style="line;strokeWidth=1;fillColor=none;align=left;verticalAlign=middle;spacingTop=-1;spacingLeft=3;spacingRight=3;rotatable=0;labelPosition=right;points=[];portConstraint=eastwest;strokeColor=inherit;fontSize=16;" parent="66qZwUKZa5FkFSXOPpvQ-0" vertex="1">
          <mxGeometry y="70" width="170" height="8" as="geometry" />
        </mxCell>
        <mxCell id="66qZwUKZa5FkFSXOPpvQ-3" value="+ get...&lt;br&gt;+ set..." style="text;strokeColor=none;fillColor=none;align=left;verticalAlign=top;spacingLeft=4;spacingRight=4;overflow=hidden;rotatable=0;points=[[0,0.5],[1,0.5]];portConstraint=eastwest;whiteSpace=wrap;html=1;fontSize=16;" parent="66qZwUKZa5FkFSXOPpvQ-0" vertex="1">
          <mxGeometry y="78" width="170" height="72" as="geometry" />
        </mxCell>
        <mxCell id="xiYTsNJNyucThmF32Ywy-0" value="Persona" style="swimlane;fontStyle=1;align=center;verticalAlign=top;childLayout=stackLayout;horizontal=1;startSize=26;horizontalStack=0;resizeParent=1;resizeParentMax=0;resizeLast=0;collapsible=1;marginBottom=0;whiteSpace=wrap;html=1;fontSize=16;" parent="WIyWlLk6GJQsqaUBKTNV-1" vertex="1">
          <mxGeometry x="256" y="40" width="310" height="270" as="geometry" />
        </mxCell>
        <mxCell id="xiYTsNJNyucThmF32Ywy-1" value="# nombre: String&lt;br&gt;# apellido: String&lt;br&gt;# edad: int" style="text;strokeColor=none;fillColor=none;align=left;verticalAlign=top;spacingLeft=4;spacingRight=4;overflow=hidden;rotatable=0;points=[[0,0.5],[1,0.5]];portConstraint=eastwest;whiteSpace=wrap;html=1;fontSize=16;" parent="xiYTsNJNyucThmF32Ywy-0" vertex="1">
          <mxGeometry y="26" width="310" height="64" as="geometry" />
        </mxCell>
        <mxCell id="xiYTsNJNyucThmF32Ywy-2" value="" style="line;strokeWidth=1;fillColor=none;align=left;verticalAlign=middle;spacingTop=-1;spacingLeft=3;spacingRight=3;rotatable=0;labelPosition=right;points=[];portConstraint=eastwest;strokeColor=inherit;fontSize=16;" parent="xiYTsNJNyucThmF32Ywy-0" vertex="1">
          <mxGeometry y="90" width="310" height="8" as="geometry" />
        </mxCell>
        <mxCell id="xiYTsNJNyucThmF32Ywy-3" value="+ Persona()&lt;br&gt;+ Persona(nombre, apellido, edad)&lt;br&gt;+ getNombre: String&lt;br&gt;+ getApellido: String&lt;br&gt;+ getEdad: int&lt;br&gt;+ setNombre(string): void&lt;br&gt;+ setApellido(string): void&lt;br&gt;+ setEdad(int): void" style="text;strokeColor=none;fillColor=none;align=left;verticalAlign=top;spacingLeft=4;spacingRight=4;overflow=hidden;rotatable=0;points=[[0,0.5],[1,0.5]];portConstraint=eastwest;whiteSpace=wrap;html=1;fontSize=16;" parent="xiYTsNJNyucThmF32Ywy-0" vertex="1">
          <mxGeometry y="98" width="310" height="172" as="geometry" />
        </mxCell>
        <mxCell id="xiYTsNJNyucThmF32Ywy-4" value="Alumno" style="swimlane;fontStyle=1;align=center;verticalAlign=top;childLayout=stackLayout;horizontal=1;startSize=26;horizontalStack=0;resizeParent=1;resizeParentMax=0;resizeLast=0;collapsible=1;marginBottom=0;whiteSpace=wrap;html=1;fontSize=16;" parent="WIyWlLk6GJQsqaUBKTNV-1" vertex="1">
          <mxGeometry x="466" y="440" width="290" height="130" as="geometry" />
        </mxCell>
        <mxCell id="xiYTsNJNyucThmF32Ywy-5" value="+ NIA: int" style="text;strokeColor=none;fillColor=none;align=left;verticalAlign=top;spacingLeft=4;spacingRight=4;overflow=hidden;rotatable=0;points=[[0,0.5],[1,0.5]];portConstraint=eastwest;whiteSpace=wrap;html=1;fontSize=16;" parent="xiYTsNJNyucThmF32Ywy-4" vertex="1">
          <mxGeometry y="26" width="290" height="24" as="geometry" />
        </mxCell>
        <mxCell id="xiYTsNJNyucThmF32Ywy-6" value="" style="line;strokeWidth=1;fillColor=none;align=left;verticalAlign=middle;spacingTop=-1;spacingLeft=3;spacingRight=3;rotatable=0;labelPosition=right;points=[];portConstraint=eastwest;strokeColor=inherit;fontSize=16;" parent="xiYTsNJNyucThmF32Ywy-4" vertex="1">
          <mxGeometry y="50" width="290" height="8" as="geometry" />
        </mxCell>
        <mxCell id="xiYTsNJNyucThmF32Ywy-7" value="+ Alumno(nombre, apellido, edad, NIA)&lt;br&gt;+ getNIA: int&lt;br&gt;+ setNIA(int): void" style="text;strokeColor=none;fillColor=none;align=left;verticalAlign=top;spacingLeft=4;spacingRight=4;overflow=hidden;rotatable=0;points=[[0,0.5],[1,0.5]];portConstraint=eastwest;whiteSpace=wrap;html=1;fontSize=16;" parent="xiYTsNJNyucThmF32Ywy-4" vertex="1">
          <mxGeometry y="58" width="290" height="72" as="geometry" />
        </mxCell>
        <mxCell id="xiYTsNJNyucThmF32Ywy-9" value="" style="shape=flexArrow;endArrow=classic;html=1;rounded=0;fontSize=12;startSize=8;endSize=8;curved=1;exitX=0.517;exitY=0;exitDx=0;exitDy=0;exitPerimeter=0;" parent="WIyWlLk6GJQsqaUBKTNV-1" source="xiYTsNJNyucThmF32Ywy-4" target="xiYTsNJNyucThmF32Ywy-3" edge="1">
          <mxGeometry width="50" height="50" relative="1" as="geometry">
            <mxPoint x="526" y="360" as="sourcePoint" />
            <mxPoint x="576" y="310" as="targetPoint" />
          </mxGeometry>
        </mxCell>
        <mxCell id="xiYTsNJNyucThmF32Ywy-10" value="Profesor" style="swimlane;fontStyle=1;align=center;verticalAlign=top;childLayout=stackLayout;horizontal=1;startSize=26;horizontalStack=0;resizeParent=1;resizeParentMax=0;resizeLast=0;collapsible=1;marginBottom=0;whiteSpace=wrap;html=1;fontSize=16;" parent="WIyWlLk6GJQsqaUBKTNV-1" vertex="1">
          <mxGeometry x="40" y="440" width="390" height="180" as="geometry" />
        </mxCell>
        <mxCell id="xiYTsNJNyucThmF32Ywy-11" value="- especialidad: INFORMATICA, ADMIN.,&amp;nbsp; FINANZAS" style="text;strokeColor=none;fillColor=none;align=left;verticalAlign=top;spacingLeft=4;spacingRight=4;overflow=hidden;rotatable=0;points=[[0,0.5],[1,0.5]];portConstraint=eastwest;whiteSpace=wrap;html=1;fontSize=16;" parent="xiYTsNJNyucThmF32Ywy-10" vertex="1">
          <mxGeometry y="26" width="390" height="44" as="geometry" />
        </mxCell>
        <mxCell id="xiYTsNJNyucThmF32Ywy-12" value="" style="line;strokeWidth=1;fillColor=none;align=left;verticalAlign=middle;spacingTop=-1;spacingLeft=3;spacingRight=3;rotatable=0;labelPosition=right;points=[];portConstraint=eastwest;strokeColor=inherit;fontSize=16;" parent="xiYTsNJNyucThmF32Ywy-10" vertex="1">
          <mxGeometry y="70" width="390" height="2" as="geometry" />
        </mxCell>
        <mxCell id="xiYTsNJNyucThmF32Ywy-13" value="+ Profesor(nombre, apellido, edad, especialidad)&lt;br&gt;+ getEspecialidad: especialidad&lt;br&gt;+ setEspecialidad(especialidad): void&lt;br&gt;+ imprimirCabecera(): void&lt;br&gt;+ imprimirProfesor(): void" style="text;strokeColor=none;fillColor=none;align=left;verticalAlign=top;spacingLeft=4;spacingRight=4;overflow=hidden;rotatable=0;points=[[0,0.5],[1,0.5]];portConstraint=eastwest;whiteSpace=wrap;html=1;fontSize=16;" parent="xiYTsNJNyucThmF32Ywy-10" vertex="1">
          <mxGeometry y="72" width="390" height="108" as="geometry" />
        </mxCell>
        <mxCell id="xiYTsNJNyucThmF32Ywy-14" value="" style="shape=flexArrow;endArrow=classic;html=1;rounded=0;fontSize=12;startSize=8;endSize=8;curved=1;exitX=0.5;exitY=0;exitDx=0;exitDy=0;" parent="WIyWlLk6GJQsqaUBKTNV-1" source="xiYTsNJNyucThmF32Ywy-10" edge="1">
          <mxGeometry width="50" height="50" relative="1" as="geometry">
            <mxPoint x="463" y="450" as="sourcePoint" />
            <mxPoint x="336" y="310" as="targetPoint" />
          </mxGeometry>
        </mxCell>
        <mxCell id="VXxMu-OpcG7jEl4jG7sZ-0" value="Cuenta" style="swimlane;fontStyle=1;align=center;verticalAlign=top;childLayout=stackLayout;horizontal=1;startSize=26;horizontalStack=0;resizeParent=1;resizeParentMax=0;resizeLast=0;collapsible=1;marginBottom=0;whiteSpace=wrap;html=1;fontSize=16;" vertex="1" parent="WIyWlLk6GJQsqaUBKTNV-1">
          <mxGeometry x="244" y="690" width="340" height="380" as="geometry" />
        </mxCell>
        <mxCell id="VXxMu-OpcG7jEl4jG7sZ-1" value="- nombre&lt;br&gt;- cuenta&amp;nbsp;&lt;br&gt;- saldo&lt;br&gt;- tipoInteres" style="text;strokeColor=none;fillColor=none;align=left;verticalAlign=top;spacingLeft=4;spacingRight=4;overflow=hidden;rotatable=0;points=[[0,0.5],[1,0.5]];portConstraint=eastwest;whiteSpace=wrap;html=1;fontSize=16;" vertex="1" parent="VXxMu-OpcG7jEl4jG7sZ-0">
          <mxGeometry y="26" width="340" height="84" as="geometry" />
        </mxCell>
        <mxCell id="VXxMu-OpcG7jEl4jG7sZ-2" value="" style="line;strokeWidth=1;fillColor=none;align=left;verticalAlign=middle;spacingTop=-1;spacingLeft=3;spacingRight=3;rotatable=0;labelPosition=right;points=[];portConstraint=eastwest;strokeColor=inherit;fontSize=16;" vertex="1" parent="VXxMu-OpcG7jEl4jG7sZ-0">
          <mxGeometry y="110" width="340" height="8" as="geometry" />
        </mxCell>
        <mxCell id="VXxMu-OpcG7jEl4jG7sZ-3" value="+ Cuenta()&lt;br&gt;+ Cuenta (nombre, cuenta, saldo, tipoInteres)&lt;br&gt;+ toString()&lt;br&gt;+ getTipoInteres()&lt;br&gt;+ setTipoInteres()&lt;br&gt;+ getNombre()&lt;br&gt;+ setNombre()&lt;br&gt;+ getCuenta()&lt;br&gt;+ setCuenta()&lt;br&gt;+ reintegro()&lt;br&gt;+ ingreso()&lt;br&gt;+ saldoCuenta()&lt;br&gt;+ estadoCuenta()" style="text;strokeColor=none;fillColor=none;align=left;verticalAlign=top;spacingLeft=4;spacingRight=4;overflow=hidden;rotatable=0;points=[[0,0.5],[1,0.5]];portConstraint=eastwest;whiteSpace=wrap;html=1;fontSize=16;" vertex="1" parent="VXxMu-OpcG7jEl4jG7sZ-0">
          <mxGeometry y="118" width="340" height="262" as="geometry" />
        </mxCell>
      </root>
    </mxGraphModel>
  </diagram>
</mxfile>
